<svg width="360" height="98" viewBox="0 0 360 98" fill="none" xmlns="http://www.w3.org/2000/svg">
<g clip-path="url(#clip0)">
<path d="M109.794 84.6839H109.927C110.384 84.1613 110.873 83.7955 111.391 83.5884C111.907 83.3814 112.439 83.2788 112.986 83.2788C113.695 83.2788 114.387 83.4585 115.058 83.8156C115.731 84.1749 116.266 84.6839 116.666 85.3461C116.948 85.8012 117.133 86.2797 117.22 86.7831C117.309 87.2862 117.353 87.8334 117.353 88.4268V88.902C117.353 90.6519 116.91 91.9389 116.024 92.7575C115.136 93.5779 113.784 93.9875 111.967 93.9875C111.212 93.9875 110.488 93.9232 109.794 93.7918C109.099 93.6605 108.456 93.4785 107.866 93.2441V79.6176L109.773 79.1223L109.794 84.6834L109.794 84.6839ZM109.772 87.1448V92.0652C110.096 92.2034 110.451 92.3037 110.835 92.3653C111.22 92.4278 111.603 92.4583 111.989 92.4583C112.313 92.4583 112.628 92.4373 112.931 92.3963C113.233 92.3548 113.518 92.28 113.784 92.1692C114.11 92.0447 114.384 91.8691 114.604 91.642C114.827 91.4149 114.996 91.1554 115.115 90.8671C115.232 90.5775 115.318 90.2702 115.369 89.9468C115.421 89.6226 115.446 89.3088 115.446 89.0051V88.3027C115.446 87.8471 115.421 87.4408 115.369 87.0823C115.318 86.7243 115.225 86.4078 115.093 86.1314C114.914 85.7588 114.637 85.446 114.261 85.1915C113.884 84.9356 113.459 84.8079 112.986 84.8079C112.542 84.8079 112.14 84.8704 111.777 84.9945C111.416 85.119 111.101 85.2877 110.835 85.5012C110.569 85.7151 110.348 85.9627 110.171 86.2454C109.993 86.5282 109.86 86.8274 109.772 87.1448Z" fill="#FEFEFE"/>
<path d="M122.032 88.985C122.032 90.1981 122.33 91.0806 122.929 91.6319C123.528 92.1828 124.432 92.4583 125.644 92.4583C126.236 92.4583 126.739 92.3452 127.152 92.1172C127.567 91.8901 127.936 91.5772 128.26 91.1772L129.946 91.818C129.517 92.493 128.919 93.0238 128.15 93.4101C127.382 93.7955 126.51 93.9879 125.533 93.9879C124.544 93.9879 123.704 93.8602 123.017 93.6057C122.33 93.3508 121.772 92.9924 121.344 92.5304C120.915 92.0693 120.604 91.5106 120.413 90.8562C120.22 90.2013 120.125 89.4743 120.125 88.6744V88.4468C120.125 88.1034 120.131 87.7687 120.147 87.444C120.161 87.1206 120.204 86.8 120.28 86.483C120.354 86.1665 120.471 85.8519 120.634 85.5422C120.797 85.2321 121.025 84.9256 121.321 84.6219C121.823 84.0983 122.423 83.7098 123.119 83.4535C123.812 83.199 124.529 83.0713 125.268 83.0713C126.096 83.0713 126.831 83.1958 127.474 83.4439C128.116 83.6911 128.656 84.0367 129.093 84.4778C129.528 84.9183 129.857 85.4428 130.079 86.0484C130.3 86.6559 130.41 87.324 130.41 88.0542V88.9845H122.032V88.985ZM122.032 87.5374H128.504V87.3518C128.504 87.0071 128.431 86.6696 128.283 86.3385C128.134 86.0074 127.92 85.715 127.64 85.4596C127.358 85.2056 127.018 84.9981 126.619 84.8394C126.22 84.6802 125.77 84.6009 125.267 84.6009C124.794 84.6009 124.359 84.6775 123.96 84.8289C123.561 84.9812 123.216 85.1833 122.929 85.4387C122.641 85.6941 122.42 85.9869 122.263 86.3184C122.108 86.6486 122.032 86.9938 122.032 87.3518V87.5374Z" fill="#FEFEFE"/>
<path d="M138.738 83.0717C139.356 83.0717 139.934 83.1543 140.472 83.3203C141.01 83.4858 141.481 83.7266 141.887 84.0431C142.293 84.3601 142.613 84.7532 142.848 85.222C143.084 85.6909 143.202 86.2349 143.202 86.8552V91.3624C143.202 91.8454 143.25 92.2595 143.347 92.6029C143.443 92.9477 143.609 93.3271 143.846 93.7407H141.806C141.687 93.5884 141.596 93.396 141.529 93.1615C141.463 92.9271 141.423 92.7142 141.407 92.5203C140.801 92.9349 140.133 93.2824 139.399 93.5647C138.669 93.8465 137.927 93.9879 137.172 93.9879C136.67 93.9879 136.201 93.9122 135.765 93.7604C135.329 93.6085 134.949 93.39 134.622 93.1064C134.299 92.8236 134.043 92.4843 133.859 92.0907C133.674 91.6962 133.582 91.2571 133.582 90.7732C133.582 90.3167 133.677 89.898 133.87 89.5186C134.061 89.1378 134.32 88.8089 134.646 88.533C134.97 88.2566 135.347 88.0418 135.776 87.8895C136.205 87.7381 136.655 87.662 137.129 87.662H141.295V86.7229C141.295 85.9891 141.056 85.4551 140.579 85.1217C140.1 84.7883 139.484 84.6146 138.735 84.6009C138.057 84.6009 137.475 84.6775 136.99 84.8289C136.504 84.9812 135.974 85.2157 135.399 85.5313L134.579 84.2028C134.935 84.008 135.27 83.8397 135.587 83.6997C135.903 83.5606 136.229 83.442 136.559 83.3435C136.891 83.2459 137.234 83.1766 137.587 83.1342C137.941 83.0918 138.325 83.0713 138.738 83.0713V83.0717ZM137.431 92.4588C137.695 92.4588 138.002 92.4072 138.348 92.3037C138.694 92.2002 139.048 92.0698 139.408 91.9101C139.768 91.7519 140.115 91.59 140.446 91.4249C140.777 91.2593 141.061 91.1143 141.295 90.9898V89.1916H137.166C136.93 89.1916 136.709 89.2363 136.504 89.3261C136.297 89.4159 136.12 89.5327 135.973 89.6768C135.826 89.8223 135.709 89.9938 135.62 90.194C135.532 90.3942 135.488 90.5971 135.488 90.8042C135.488 91.0523 135.543 91.2762 135.652 91.4764C135.763 91.6766 135.91 91.8486 136.095 91.9927C136.279 92.1382 136.485 92.2517 136.714 92.3343C136.941 92.4168 137.18 92.4583 137.431 92.4583V92.4588Z" fill="#FEFEFE"/>
<path d="M151.581 93.9879C150.163 93.9879 149.139 93.6723 148.511 93.0375C147.882 92.404 147.569 91.4522 147.569 90.1844V83.5679L149.476 83.0717V90.1844C149.476 90.9976 149.645 91.5799 149.986 91.9311C150.325 92.2823 150.858 92.4583 151.581 92.4583C152.01 92.4583 152.501 92.3315 153.055 92.0752C153.609 91.8207 154.176 91.3971 154.752 90.8042V83.5675L156.658 83.0713V91.3619C156.658 91.8723 156.71 92.2964 156.814 92.6339C156.917 92.9718 157.08 93.3403 157.301 93.7403H155.262C155.157 93.6021 155.069 93.4124 154.996 93.172C154.921 92.9299 154.877 92.7137 154.863 92.5199C154.581 92.7963 154.263 93.0443 153.909 93.2642C153.614 93.4571 153.266 93.6272 152.867 93.7708C152.468 93.9154 152.039 93.9875 151.581 93.9875V93.9879Z" fill="#FEFEFE"/>
<path d="M161.491 84.7053H160.228V83.3203H161.491V81.0861L163.397 80.5908V83.3208H165.437L164.972 84.7058H163.397V91.2188C163.397 92.0456 163.856 92.4592 164.773 92.4592H165.593V93.7617C165.341 93.8447 165.124 93.9036 164.939 93.9387C164.754 93.972 164.558 93.9889 164.35 93.9889C163.951 93.9889 163.579 93.92 163.231 93.7832C162.883 93.6454 162.581 93.4521 162.323 93.204C162.063 92.9559 161.859 92.6631 161.712 92.3252C161.565 91.9881 161.49 91.6183 161.49 91.2188V84.7058L161.491 84.7053Z" fill="#FEFEFE"/>
<path d="M174.415 95.9531C174.165 96.5596 173.829 97.0526 173.408 97.4312C172.986 97.8097 172.465 97.9999 171.844 97.9999C171.637 97.9999 171.419 97.983 171.191 97.9493C170.961 97.9146 170.676 97.8503 170.336 97.7545V96.4694H171.267C171.607 96.4694 171.895 96.4251 172.133 96.3357C172.368 96.2454 172.547 96.0425 172.664 95.7237L173.418 93.6942C172.989 93.5976 172.623 93.4124 172.321 93.136C172.017 92.8597 171.785 92.5281 171.622 92.1414L168.119 83.5688L169.96 83.0717L173.418 91.5079C173.478 91.6452 173.548 91.7555 173.63 91.8376C173.709 91.9202 173.831 91.9626 173.994 91.9626H174.083L177.519 83.0717L179.36 83.5679L174.415 95.9526V95.9531Z" fill="#FEFEFE"/>
<path d="M195.01 83.0717C195.72 83.0717 196.407 83.2026 197.072 83.4644C197.738 83.7266 198.305 84.0988 198.78 84.5813L197.626 85.6361C197.376 85.3871 197.042 85.1532 196.629 84.932C196.216 84.7126 195.66 84.6013 194.967 84.6013C194.731 84.6013 194.475 84.6191 194.201 84.6533C193.927 84.6885 193.669 84.7569 193.425 84.8604C193.182 84.9635 192.979 85.1117 192.816 85.305C192.653 85.4984 192.572 85.7465 192.572 86.0489C192.572 86.3937 192.738 86.6595 193.071 86.8447C193.403 87.0317 193.821 87.1968 194.323 87.3418C194.826 87.4864 195.365 87.6236 195.942 87.7545C196.518 87.8863 197.058 88.0583 197.56 88.2722C198.063 88.4856 198.481 88.7674 198.812 89.1195C199.144 89.4702 199.312 89.9363 199.312 90.515C199.312 91.5904 198.934 92.4378 198.18 93.0585C197.427 93.6787 196.319 93.9884 194.855 93.9884C193.747 93.9884 192.815 93.8133 192.061 93.4612C191.309 93.1105 190.702 92.5559 190.244 91.7975L191.618 90.9907C191.811 91.1978 192.01 91.3907 192.218 91.5699C192.425 91.7496 192.653 91.9042 192.905 92.0351C193.156 92.1664 193.448 92.2695 193.78 92.3457C194.112 92.4209 194.508 92.4588 194.967 92.4588C195.203 92.4588 195.464 92.4378 195.754 92.3967C196.042 92.3552 196.308 92.2722 196.55 92.1482C196.795 92.0251 196.998 91.8522 197.161 91.6324C197.324 91.4121 197.405 91.1289 197.405 90.7846C197.405 90.3705 197.238 90.0604 196.906 89.8533C196.574 89.6467 196.159 89.478 195.665 89.3475C195.169 89.2162 194.633 89.0963 194.057 88.985C193.481 88.8751 192.944 88.7095 192.45 88.4888C191.955 88.2685 191.542 87.9616 191.208 87.5685C190.877 87.1758 190.709 86.6349 190.709 85.9458C190.709 85.4081 190.85 84.9566 191.132 84.5913C191.412 84.226 191.763 83.9287 192.184 83.702C192.605 83.4749 193.067 83.3125 193.569 83.2158C194.071 83.1201 194.552 83.0713 195.01 83.0713V83.0717Z" fill="#FEFEFE"/>
<path d="M203.28 84.7053H202.017V83.3203H203.28V81.0861L205.186 80.5908V83.3208H207.226L206.761 84.7058H205.186V91.2188C205.186 92.0456 205.645 92.4592 206.562 92.4592H207.382V93.7617C207.13 93.8447 206.913 93.9036 206.728 93.9387C206.543 93.972 206.347 93.9889 206.139 93.9889C205.74 93.9889 205.368 93.92 205.02 93.7832C204.673 93.6454 204.37 93.4521 204.112 93.204C203.852 92.9559 203.649 92.6631 203.501 92.3252C203.354 91.9881 203.279 91.6183 203.279 91.2188V84.7058L203.28 84.7053Z" fill="#FEFEFE"/>
<path d="M214.586 93.9879C213.168 93.9879 212.144 93.6723 211.517 93.0375C210.887 92.404 210.574 91.4522 210.574 90.1844V83.5679L212.481 83.0717V90.1844C212.481 90.9976 212.65 91.5799 212.991 91.9311C213.33 92.2823 213.863 92.4583 214.586 92.4583C215.015 92.4583 215.506 92.3315 216.06 92.0752C216.615 91.8207 217.181 91.3971 217.757 90.8042V83.5675L219.664 83.0713V91.3619C219.664 91.8723 219.715 92.2964 219.819 92.6339C219.922 92.9718 220.085 93.3403 220.305 93.7403H218.268C218.163 93.6021 218.075 93.4124 218.001 93.172C217.927 92.9299 217.882 92.7137 217.868 92.5199C217.586 92.7963 217.269 93.0443 216.915 93.2642C216.619 93.4571 216.271 93.6272 215.873 93.7708C215.473 93.9154 215.044 93.9875 214.586 93.9875V93.9879Z" fill="#FEFEFE"/>
<path d="M230.903 79.6185L232.811 79.1232V91.3629C232.811 91.8732 232.861 92.2973 232.966 92.6348C233.069 92.9727 233.232 93.3412 233.453 93.7412H231.413C231.31 93.603 231.221 93.4133 231.147 93.173C231.074 92.9308 231.029 92.7146 231.014 92.5208C230.718 92.7972 230.394 93.0453 230.039 93.2651C229.743 93.458 229.389 93.6281 228.974 93.7718C228.561 93.9163 228.124 93.9884 227.667 93.9884C226.869 93.9884 226.188 93.8652 225.627 93.6167C225.066 93.3686 224.604 93.0348 224.242 92.6138C223.878 92.1933 223.617 91.7003 223.455 91.1357C223.292 90.5702 223.21 89.9705 223.21 89.3371V88.3447C223.21 86.5797 223.675 85.2608 224.607 84.3847C225.538 83.5086 226.927 83.0717 228.776 83.0717C229.47 83.0717 230.18 83.2026 230.902 83.4644V79.6185H230.903ZM230.903 85.077C230.623 84.9261 230.275 84.8084 229.862 84.7268C229.447 84.6442 229.026 84.6013 228.599 84.6013C227.49 84.6013 226.633 84.9215 226.028 85.5632C225.42 86.2039 225.118 87.0823 225.118 88.1992V89.4397C225.118 89.8401 225.162 90.2186 225.251 90.5775C225.34 90.936 225.487 91.2571 225.694 91.5384C225.901 91.8212 226.164 92.0451 226.481 92.2107C226.799 92.3762 227.194 92.4588 227.668 92.4588C228.095 92.4588 228.599 92.332 229.175 92.0757C229.751 91.8212 230.327 91.3975 230.903 90.8046V85.077Z" fill="#FEFEFE"/>
<path d="M237.886 79.1232C238.181 79.1232 238.433 79.2153 238.64 79.4023C238.846 79.5879 238.95 79.8182 238.95 80.0946C238.95 80.37 238.846 80.6013 238.64 80.7873C238.433 80.973 238.181 81.066 237.886 81.066C237.59 81.066 237.34 80.973 237.133 80.7873C236.925 80.6013 236.823 80.37 236.823 80.0946C236.823 79.8182 236.925 79.5879 237.133 79.4023C237.34 79.2153 237.59 79.1232 237.886 79.1232ZM236.956 93.7412V83.3207H238.862V93.7412H236.956Z" fill="#FEFEFE"/>
<path d="M251.541 92.5003C251.025 93.0097 250.441 93.3855 249.79 93.6276C249.14 93.8684 248.437 93.9884 247.684 93.9884C246.96 93.9884 246.265 93.8653 245.599 93.6167C244.936 93.3686 244.344 92.9956 243.826 92.5003C243.266 91.9767 242.899 91.3702 242.728 90.6801C242.559 89.9915 242.475 89.2741 242.475 88.5298V88.1372C242.489 87.4212 242.584 86.7795 242.763 86.214C242.94 85.6494 243.316 85.0839 243.893 84.5193C244.409 84.0226 244.987 83.6578 245.622 83.4229C246.258 83.188 246.945 83.0717 247.684 83.0717C248.423 83.0717 249.105 83.1853 249.735 83.4124C250.363 83.6404 250.935 83.9948 251.453 84.4782C251.984 84.9876 252.369 85.539 252.606 86.1314C252.842 86.7248 252.961 87.3792 252.961 88.0961V88.5298C252.961 89.2741 252.872 89.9774 252.695 90.6391C252.516 91.3008 252.133 91.9202 251.541 92.5003ZM251.187 88.5298V88.1162C251.187 87.1106 250.905 86.2906 250.343 85.6562C250.047 85.3256 249.678 85.067 249.235 84.8814C248.792 84.6944 248.282 84.6014 247.705 84.6014C247.144 84.6014 246.649 84.6885 246.22 84.8604C245.791 85.0328 245.43 85.2772 245.134 85.5946C244.542 86.2286 244.247 87.0764 244.247 88.1376V88.6128C244.247 89.192 244.313 89.7297 244.447 90.2259C244.58 90.7221 244.808 91.1499 245.134 91.5079C245.4 91.8103 245.744 92.0451 246.165 92.2107C246.586 92.3762 247.099 92.4588 247.705 92.4588C248.267 92.4588 248.748 92.3826 249.147 92.2307C249.545 92.0798 249.886 91.8664 250.166 91.59C250.549 91.232 250.816 90.7846 250.964 90.246C251.111 89.7092 251.186 89.1368 251.186 88.5298H251.187Z" fill="#FEFEFE"/>
<path d="M26.1502 44.0642C26.1502 46.0503 26.2754 47.8335 26.5243 49.416C26.7733 50.9986 27.2286 52.3435 27.8893 53.4549C28.55 54.5658 29.4738 55.4159 30.6615 56.0052C31.8514 56.5939 33.3978 56.8876 35.306 56.8876C36.6556 56.8876 37.8432 56.712 38.8699 56.3586C39.8966 56.0056 40.8802 55.2563 41.8194 54.1125L45.1207 57.6465C43.7993 59.2614 42.3032 60.4234 40.6312 61.1299C38.9597 61.8368 37.183 62.1902 35.306 62.1902C32.7529 62.1902 30.5739 61.7515 28.7691 60.8768C26.9642 60.0016 25.49 58.7739 24.3454 57.1909C23.2012 55.6098 22.3578 53.7162 21.8158 51.5116C21.273 49.3075 21.0005 46.8585 21.0005 44.165V42.2979C21.0005 39.7394 21.3166 37.4427 21.9478 35.4059C22.5786 33.3696 23.5023 31.6439 24.7199 30.2306C25.9375 28.8168 27.4345 27.7401 29.209 26.998C30.9843 26.2588 33.0173 25.8875 35.306 25.8875C37.0954 25.8875 38.8404 26.2241 40.5433 26.8977C42.2447 27.5713 43.7417 28.664 45.0327 30.18L41.6878 34.0669C40.7487 32.9902 39.7796 32.2496 38.7828 31.845C37.7856 31.441 36.6256 31.2394 35.306 31.2394C32.1661 31.2394 29.8556 32.1903 28.3736 34.0925C26.8912 35.9938 26.1511 38.7625 26.1511 42.3973V44.0637L26.1502 44.0642Z" fill="#FEFEFE"/>
<path d="M54.0987 50.5772C54.0987 51.5536 54.208 52.4538 54.427 53.2779C54.6479 54.103 55.0138 54.8108 55.5276 55.3986C56.041 55.9878 56.7235 56.4503 57.5751 56.7869C58.4254 57.1239 59.4815 57.2926 60.7431 57.2926C61.8578 57.2926 62.7248 57.1075 63.3402 56.7371C63.9569 56.3668 64.6172 55.7949 65.3215 55.0205L69.2817 56.8876C68.3425 58.7069 67.0968 60.0445 65.5405 60.9019C63.9846 61.7615 62.3131 62.1898 60.5241 62.1898C56.855 62.1898 54.0688 61.0966 52.1605 58.9075C50.2541 56.7207 49.3009 53.4896 49.3009 49.2136V48.659C49.3009 48.2221 49.3009 47.8002 49.3009 47.3966C49.3009 46.993 49.3149 46.6067 49.3444 46.236C49.4025 44.6197 49.7249 43.1553 50.3117 41.8423C50.8985 40.5298 51.6767 39.4024 52.6458 38.4597C53.613 37.5179 54.7277 36.7942 55.9906 36.2889C57.2504 35.7849 58.5873 35.5318 59.9944 35.5318C61.6084 35.5318 63.0468 35.8269 64.3084 36.4157C65.57 37.004 66.6406 37.8299 67.5204 38.8893C68.402 39.9496 69.069 41.2289 69.5243 42.7266C69.9783 44.2243 70.2068 45.8821 70.2068 47.699V50.5772H54.0982H54.0987ZM54.0987 45.8821H65.4094C65.4094 45.0735 65.2761 44.3337 65.0131 43.6601C64.7487 42.987 64.3746 42.4156 63.8907 41.9431C63.4055 41.4724 62.8346 41.1026 62.1738 40.833C61.5131 40.5649 60.7871 40.4285 59.9949 40.4285C59.2625 40.4285 58.5424 40.5298 57.8399 40.7313C57.1352 40.9338 56.5026 41.2617 55.9457 41.716C55.3889 42.1707 54.9408 42.743 54.6043 43.433C54.266 44.123 54.0987 44.9394 54.0987 45.8816V45.8821Z" fill="#FEFEFE"/>
<path d="M75.2686 27.404L80.0641 25.8885V54.264C80.0641 56.2839 80.9738 57.2936 82.7945 57.2936H84.51V61.5846C84.0402 61.752 83.4534 61.8952 82.7505 62.0133C82.0463 62.1319 81.4436 62.1907 80.9457 62.1907C80.124 62.1907 79.3676 62.0384 78.6792 61.736C77.9885 61.4332 77.3877 61.0041 76.8739 60.4495C76.3605 59.8936 75.9646 59.2291 75.6862 58.4547C75.406 57.6808 75.2681 56.8384 75.2681 55.9304V27.4045L75.2686 27.404Z" fill="#FEFEFE"/>
<path d="M92.5648 50.5777C92.5648 51.5541 92.6741 52.4544 92.8931 53.2785C93.1139 54.1035 93.4799 54.8113 93.9937 55.3991C94.507 55.9884 95.1895 56.4508 96.0416 56.7874C96.8914 57.1244 97.948 57.2931 99.2092 57.2931C100.324 57.2931 101.191 57.108 101.806 56.7377C102.423 56.3673 103.083 55.7954 103.788 55.0211L107.748 56.8882C106.809 58.7074 105.563 60.045 104.007 60.9024C102.451 61.7621 100.779 62.1903 98.9901 62.1903C95.321 62.1903 92.5353 61.0971 90.6266 58.908C88.7202 56.7212 87.7669 53.4901 87.7669 49.2141V48.6595C87.7669 48.2226 87.7669 47.8007 87.7669 47.3971C87.7669 46.9935 87.781 46.6072 87.8105 46.2365C87.8685 44.6202 88.1909 43.1558 88.7777 41.8428C89.3646 40.5303 90.1427 39.4029 91.1118 38.4602C92.0791 37.5185 93.1937 36.7947 94.4567 36.2894C95.7165 35.7854 97.0538 35.5323 98.4609 35.5323C100.075 35.5323 101.513 35.8274 102.774 36.4162C104.036 37.0045 105.107 37.8304 105.987 38.8898C106.868 39.9502 107.535 41.2294 107.99 42.7271C108.445 44.2248 108.673 45.8826 108.673 47.6995V50.5777H92.5643H92.5648ZM92.5648 45.8826H103.875C103.875 45.074 103.742 44.3343 103.48 43.6607C103.215 42.9875 102.841 42.4161 102.357 41.9436C101.872 41.4729 101.301 41.1031 100.64 40.8336C99.9792 40.5654 99.2532 40.429 98.4614 40.429C97.7286 40.429 97.0089 40.5303 96.306 40.7319C95.6013 40.9343 94.9691 41.2622 94.4118 41.7165C93.8549 42.1712 93.4069 42.7435 93.0704 43.4335C92.7326 44.1236 92.5648 44.9399 92.5648 45.8821V45.8826Z" fill="#FEFEFE"/>
<path d="M118.71 39.4689H118.974C119.766 38.3584 120.652 37.5097 121.637 36.92C122.62 36.3317 123.756 36.0362 125.048 36.0362C126.632 36.0362 127.997 36.3728 129.141 37.0454C130.285 37.719 131.23 38.6115 131.979 39.7216C132.727 40.8326 133.284 42.1122 133.652 43.5584C134.018 45.0059 134.201 46.5041 134.201 48.0519V49.2131C134.201 53.4216 133.262 56.635 131.385 58.8564C129.507 61.0783 126.719 62.1893 123.021 62.1893C122.319 62.1893 121.571 62.1555 120.777 62.0876C119.985 62.0205 119.179 61.912 118.357 61.7611C117.535 61.6087 116.743 61.4158 115.981 61.1805C115.217 60.9443 114.513 60.6752 113.868 60.3724V27.4541L118.665 25.888L118.709 39.4689H118.71ZM118.666 46.6391V56.333C119.341 56.7038 120.051 56.956 120.799 57.0901C121.548 57.2246 122.304 57.2926 123.068 57.2926C124.328 57.2926 125.363 57.1403 126.17 56.837C126.976 56.5346 127.623 56.0635 128.106 55.4241C128.59 54.7843 128.928 53.9684 129.119 52.9756C129.309 51.9832 129.405 50.8129 129.405 49.4666V48.9112C129.405 48.0022 129.368 47.0682 129.295 46.1087C129.221 45.1501 129.046 44.2908 128.767 43.5338C128.487 42.7767 128.055 42.1542 127.467 41.6658C126.881 41.1782 126.074 40.9338 125.048 40.9338C123.434 40.9338 122.069 41.4387 120.955 42.4479C119.839 43.4581 119.076 44.855 118.666 46.6391Z" fill="#FEFEFE"/>
<path d="M144.456 38.7119C145.013 37.7026 145.659 36.9201 146.393 36.3646C147.126 35.81 148.036 35.5314 149.122 35.5314C150.266 35.5314 151.484 35.9021 152.776 36.6419L151.102 41.7415C150.368 41.2371 149.65 40.9844 148.945 40.9844C148.006 40.9844 147.244 41.2795 146.657 41.8678C146.07 42.4571 145.616 43.1981 145.293 44.0897C144.97 44.9822 144.751 45.9327 144.633 46.9419C144.516 47.9521 144.456 48.8606 144.456 49.6687V61.5841H139.66V42.3982C139.66 41.4893 139.6 40.6739 139.483 39.9501C139.365 39.2263 139.145 38.5108 138.822 37.8048L143.136 35.5318C143.371 36.0367 143.582 36.5506 143.775 37.0715C143.964 37.5946 144.103 38.1414 144.193 38.7124H144.456V38.7119Z" fill="#FEFEFE"/>
<path d="M160.917 25.8875C161.65 25.8875 162.266 26.1575 162.765 26.6957C163.294 27.3013 163.559 28.0082 163.559 28.8163C163.559 29.6915 163.294 30.3989 162.765 30.937C162.266 31.4747 161.65 31.7442 160.917 31.7442C160.154 31.7442 159.537 31.4747 159.069 30.937C158.54 30.3989 158.276 29.6915 158.276 28.8163C158.276 28.0082 158.54 27.3013 159.069 26.6957C159.537 26.1575 160.154 25.8875 160.917 25.8875ZM158.628 61.5837V36.1374H163.425V61.5837H158.628Z" fill="#FEFEFE"/>
<path d="M172.007 40.6816H169.499V36.1379H172.007V30.6843L176.804 29.4735V36.1379H180.326L179.093 40.6816H176.804V54.263C176.804 56.2829 177.714 57.2926 179.533 57.2926H180.633V61.6338C180.223 61.8021 179.82 61.9371 179.423 62.0374C179.027 62.1391 178.609 62.1897 178.169 62.1897C177.348 62.1897 176.564 62.0625 175.815 61.8108C175.067 61.5586 174.413 61.1632 173.856 60.6241C173.299 60.0864 172.851 59.3873 172.514 58.5285C172.176 57.6707 172.007 56.6354 172.007 55.4241V40.6816H172.007Z" fill="#FEFEFE"/>
<path d="M197.446 66.9866C197.211 67.6584 196.947 68.29 196.654 68.8792C196.36 69.468 196.001 69.9979 195.575 70.4704C195.149 70.9411 194.673 71.3109 194.145 71.5805C193.617 71.85 193.015 71.985 192.34 71.985C191.84 71.985 191.263 71.9257 190.602 71.8071C189.942 71.6899 189.363 71.5467 188.863 71.3784V67.0368H190.712C191.357 67.0368 191.819 66.9611 192.099 66.8096C192.378 66.6578 192.649 66.1944 192.913 65.4209L194.233 61.331C192.854 61.331 191.93 60.6583 191.46 59.3111L184.066 37.0459L188.599 35.5318L194.937 54.5157C195.142 55.1209 195.554 55.4246 196.17 55.4246L202.596 35.5318L207.173 37.0459L197.446 66.987V66.9866Z" fill="#FEFEFE"/>
<path d="M279.396 40.3783C278.927 40.3783 278.427 40.4376 277.9 40.5548C277.371 40.6739 276.857 40.833 276.359 41.0355C275.86 41.2371 275.383 41.498 274.929 41.8177C274.473 42.1378 274.085 42.4995 273.762 42.9031V61.5841H268.965V42.3982C268.965 41.4893 268.906 40.6907 268.789 39.9998C268.67 39.3112 268.452 38.5792 268.129 37.8048L272.441 35.5318C272.676 36.0034 272.881 36.4745 273.058 36.9456C273.234 37.4167 273.38 37.9384 273.498 38.5108H273.762C274.143 38.0739 274.591 37.6698 275.104 37.2995C275.618 36.9292 276.153 36.6095 276.712 36.3395C277.269 36.0713 277.834 35.8688 278.406 35.7338C278.978 35.5998 279.514 35.5318 280.013 35.5318C281.273 35.5318 282.425 35.7266 283.468 36.1124C284.508 36.5 285.41 37.0637 286.175 37.8044C286.936 38.545 287.531 39.4776 287.957 40.6064C288.382 41.7342 288.596 43.0217 288.596 44.4678V61.5837H283.799V45.5783C283.799 42.1123 282.33 40.3779 279.397 40.3779L279.396 40.3783Z" fill="#FEFEFE"/>
<path d="M304.439 35.5314C305.671 35.5314 306.853 35.7334 307.982 36.1379C309.112 36.542 310.108 37.1394 310.975 37.9298C311.84 38.7206 312.53 39.6892 313.044 40.833C313.557 41.9782 313.814 43.2903 313.814 44.772V55.778C313.814 56.9228 313.909 57.9233 314.1 58.7826C314.291 59.6404 314.62 60.5744 315.089 61.5846H310.029C309.794 61.2143 309.617 60.7441 309.501 60.1708C309.382 59.5984 309.294 59.0776 309.237 58.6052C308.033 59.6144 306.793 60.4654 305.517 61.1554C304.24 61.8445 302.855 62.1902 301.358 62.1902C300.359 62.1902 299.398 62.0046 298.475 61.6347C297.551 61.2644 296.736 60.7354 296.032 60.0449C295.329 59.3549 294.763 58.5294 294.338 57.5699C293.912 56.6113 293.7 55.5436 293.7 54.3638C293.7 53.1201 293.891 51.9909 294.272 50.9817C294.653 49.9724 295.188 49.1137 295.878 48.4063C296.567 47.6994 297.375 47.1627 298.3 46.7905C299.223 46.4207 300.214 46.2364 301.269 46.2364H309.016V45.6294C309.016 43.7792 308.627 42.4488 307.85 41.6412C307.072 40.8335 305.935 40.4125 304.438 40.3788C303.089 40.3788 301.908 40.5389 300.895 40.8586C299.884 41.1787 298.819 41.6749 297.705 42.3485L295.635 38.2586C297.073 37.3164 298.481 36.6259 299.862 36.1885C301.241 35.7516 302.765 35.5318 304.438 35.5318L304.439 35.5314ZM301.842 57.2926C302.37 57.2926 302.957 57.1654 303.603 56.9136C304.248 56.6605 304.892 56.3499 305.539 55.9796C306.184 55.6093 306.807 55.2144 307.41 54.7921C308.011 54.3716 308.546 54.0099 309.016 53.7071V51.082H304.682H301.315C300.374 51.082 299.663 51.368 299.18 51.9399C298.696 52.5131 298.453 53.3372 298.453 54.4135C298.453 55.5924 298.776 56.3664 299.423 56.7367C300.067 57.1075 300.873 57.2922 301.842 57.2922V57.2926Z" fill="#FEFEFE"/>
<path d="M322.526 25.8875C323.26 25.8875 323.876 26.1575 324.375 26.6957C324.904 27.3013 325.168 28.0082 325.168 28.8163C325.168 29.6915 324.904 30.3989 324.375 30.937C323.876 31.4747 323.26 31.7442 322.526 31.7442C321.764 31.7442 321.147 31.4747 320.679 30.937C320.15 30.3989 319.886 29.6915 319.886 28.8163C319.886 28.0082 320.15 27.3013 320.679 26.6957C321.147 26.1575 321.764 25.8875 322.526 25.8875ZM320.238 61.5837V36.1374H325.035V61.5837H320.238Z" fill="#FEFEFE"/>
<path d="M330.758 27.4035L335.554 25.888V54.2635C335.554 56.2833 336.464 57.293 338.284 57.293H340V61.5841C339.53 61.7515 338.943 61.8947 338.241 62.0128C337.536 62.1314 336.933 62.1902 336.436 62.1902C335.614 62.1902 334.858 62.0379 334.169 61.7355C333.479 61.4327 332.878 61.0035 332.364 60.449C331.851 59.893 331.454 59.2286 331.176 58.4542C330.895 57.6802 330.758 56.8379 330.758 55.9299V27.4039L330.758 27.4035Z" fill="#FEFEFE"/>
<path fill-rule="evenodd" clip-rule="evenodd" d="M258.213 44.5389C256.762 43.5438 254.815 43.4034 252.262 44.1093C255.282 41.9991 255.902 41.4332 256.085 41.1846C257.313 39.5191 256.323 37.9001 255.176 36.0252C253.926 33.9807 252.369 31.4373 253.059 27.8445C253.494 25.5701 253.126 23.6902 252.046 22.6878C251.364 22.053 250.468 21.8487 249.522 22.1114C248.895 22.2856 248.273 22.6554 247.671 23.2114C247.102 23.7363 246.558 24.3032 246.046 24.9034L246.039 24.8755L245.439 25.6518L245.439 25.6522L245.288 25.8479L245.288 25.8497C240.275 32.5004 239.9 41.1769 240.304 46.6587C240.07 46.5625 239.81 46.5456 239.538 46.6204C239.345 46.6737 239.142 46.7732 238.909 46.9323C238.87 46.9597 238.829 46.9898 238.788 47.0208C238.749 47.0509 238.711 47.0819 238.673 47.1138L238.647 47.1348C238.577 47.195 238.514 47.2552 238.459 47.3127C238.043 47.7473 237.999 48.1491 238.035 48.4104C238.038 48.4373 238.048 48.4606 238.053 48.4861C236.372 47.8248 234.675 47.2862 232.986 46.8844L232.714 46.8211C232.71 46.8192 232.705 46.8188 232.7 46.8179L231.901 46.6336L231.903 46.6446C227.366 45.7133 223.099 45.7881 219.208 46.8685C217.164 47.4349 215.23 48.2886 213.46 49.4028C211.976 50.3368 211.274 51.6521 211.583 52.9204C211.974 54.5239 213.847 55.6503 216.472 55.8583C220.1 56.1461 222.125 58.332 223.753 60.0887C225.246 61.6999 226.524 63.09 228.453 62.3421C228.907 62.1651 230.164 61.1686 232.067 59.5556C230.922 61.5841 230.571 63.3135 230.966 64.8613C231.502 66.9674 233.416 68.6475 236.816 69.9984C237.374 70.2191 237.93 70.4138 238.471 70.5776L238.736 70.6555C238.738 70.656 238.74 70.6565 238.741 70.6574L239.575 70.8959L239.569 70.8717C241.491 71.3191 243.19 71.3442 244.629 70.9451C246.192 70.5114 247.392 69.566 248.102 68.2106C249.178 66.1538 249.116 63.2328 247.923 59.7622C247.862 59.5847 247.814 59.447 247.77 59.3307C247.788 59.3275 247.808 59.3262 247.825 59.3221C247.909 59.2979 247.987 59.2596 248.055 59.2076C248.082 59.1871 248.107 59.1656 248.131 59.1428C248.216 59.2044 248.314 59.2737 248.439 59.3608C250.876 61.0469 253.198 61.9266 255.186 61.9216L255.581 61.9093C255.584 61.9093 255.586 61.9088 255.588 61.9088L256.19 61.8691L256.182 61.8409C256.384 61.8076 256.583 61.7642 256.775 61.7104H256.776C260.13 60.7792 261.786 56.8977 261.205 51.326C260.846 47.8928 259.868 45.6722 258.213 44.538V44.5389ZM248.153 57.5781C248.006 57.1239 247.77 56.5465 247.419 55.8027C246.782 54.4541 245.987 53.0636 245.644 52.6112C245.174 51.9914 244.603 51.6744 244.143 51.4199C243.898 51.2845 243.687 51.1682 243.547 51.0368C243.529 51.0213 243.513 51.0026 243.5 50.947L243.461 50.8284L243.453 50.8175C243.085 49.5829 242.487 48.7283 241.97 48.3283L241.969 48.2909L241.508 48.0451C241.487 48.0337 241.463 48.0209 241.44 48.0091C241.616 41.5855 242.392 33.553 246.641 27.7815L246.647 27.7733C247.403 26.7481 248.255 25.8168 249.18 25.0069C249.678 24.5704 249.998 24.419 250.179 24.3684C250.391 24.31 250.465 24.373 250.501 24.4026C251.216 25.0146 250.847 28.4437 250.709 29.7348C250.623 30.5307 250.59 30.8618 250.623 31.0615C250.836 32.3462 251.825 33.952 252.782 35.5049C253.976 37.4418 255.329 39.6368 254.533 40.3386L251.647 42.707L251.07 43.2091L248.276 45.6335L244.491 47.4039L246.239 47.0577L246.231 47.0632L246.748 46.9597L245.601 47.9553L248.521 46.6058L248.579 46.5939C248.584 46.5926 248.59 46.5917 248.595 46.5907L248.698 46.5698C249.263 46.4567 249.809 46.3404 250.332 46.2291C250.65 46.1611 250.959 46.0946 251.261 46.0321L251.3 46.0239C253.831 45.498 255.867 45.1715 257.117 46.1278C258.158 46.925 258.733 48.6398 258.923 51.5244C259.249 56.4767 258.379 59.1697 256.262 59.7571C255.961 59.8406 255.625 59.8871 255.264 59.8953C253.616 59.93 251.346 59.1903 248.153 57.5776V57.5781ZM244.38 68.7889C243.05 69.1583 241.113 68.9549 238.623 68.1851L238.594 68.1769C238.276 68.0779 237.947 67.9698 237.608 67.8513C234.857 66.8954 233.34 65.8578 232.831 64.5845C232.162 62.9149 233.261 60.7509 234.654 58.0104C234.872 57.5804 235.098 57.1371 235.325 56.6783L237.316 54.2735L236.117 55.078L237.172 52.9441L234.445 56.1999L231.089 58.4528L228.072 60.6072C228.008 60.6496 227.943 60.6793 227.875 60.6984C226.944 60.9566 225.319 59.1912 223.886 57.6342C222.652 56.2938 221.376 54.9074 220.201 54.3601C220.013 54.2735 219.66 54.2124 218.877 54.0838C217.674 53.8868 214.016 53.287 213.832 52.4205C213.793 52.2377 214.023 51.8609 214.787 51.352C216.466 50.2342 218.331 49.3864 220.33 48.8318C223.907 47.8385 227.949 47.7323 232.689 48.5066L232.713 48.5112C234.66 48.83 236.714 49.2952 238.991 49.9332L239.026 49.8329C239.033 49.8634 239.039 49.8935 239.045 49.9218C239.062 50.0007 239.08 50.0851 239.1 50.1731L239.118 50.2538C239.271 50.8271 239.922 51.7862 241.252 52.6048L241.284 52.623C241.346 52.6545 241.362 52.6782 241.374 52.701C241.461 52.8711 241.517 53.1074 241.581 53.3801C241.703 53.8931 241.854 54.533 242.325 55.1523C242.562 55.4661 244.568 57.5699 246.172 58.6713C247.55 64.9348 246.993 68.0629 244.38 68.788L244.38 68.7889Z" fill="url(#paint0_linear)"/>
</g>
<line x1="360" y1="88.5" x2="276" y2="88.5" stroke="#FEFEFE"/>
<line x1="359.5" y1="88" x2="359.5" y2="2.18557e-08" stroke="#FEFEFE"/>
<line x1="84" y1="88.5" x2="-4.37114e-08" y2="88.5" stroke="#FEFEFE"/>
<line x1="0.5" y1="88" x2="0.499996" y2="2.18557e-08" stroke="#FEFEFE"/>
<line x1="359" y1="0.5" x2="1" y2="0.500031" stroke="#FEFEFE"/>
<defs>
<linearGradient id="paint0_linear" x1="253.267" y1="70.8124" x2="219.076" y2="22.6245" gradientUnits="userSpaceOnUse">
<stop stop-color="#B82828"/>
<stop offset="0.321569" stop-color="#7E579E"/>
<stop offset="0.568627" stop-color="#7E579E"/>
<stop offset="0.980392" stop-color="#496AB0"/>
<stop offset="1" stop-color="#496AB0"/>
</linearGradient>
<clipPath id="clip0">
<rect width="319" height="76" fill="white" transform="translate(21 22)"/>
</clipPath>
</defs>
</svg>
